<svg xmlns="http://www.w3.org/2000/svg" xmlns:xlink="http://www.w3.org/1999/xlink" width="182.02" height="274.01"
	viewBox="0 0 182.02 274.01" class="svg-illustration animation-element" data-server="" style="opacity: 1;">
	<defs>
		<linearGradient id="ease-of-integration-left-block-gradient-a" y1="0.5" x2="1" y2="0.5"
			gradientUnits="objectBoundingBox">
			<stop offset="0" stop-color="#1d53da"></stop>
			<stop offset="1" stop-color="#3f75fc"></stop>
		</linearGradient>
		<linearGradient id="ease-of-integration-left-block-gradient-b" y1="0.5" x2="1" y2="0.5"
			gradientUnits="objectBoundingBox">
			<stop offset="0" stop-color="#0b3ebf"></stop>
			<stop offset="1" stop-color="#2e5fdb"></stop>
		</linearGradient>
		<linearGradient id="ease-of-integration-left-block-gradient-f" x1="0.212" y1="1" x2="0.788"
			gradientUnits="objectBoundingBox">
			<stop offset="0" stop-color="#0397f6"></stop>
			<stop offset="1" stop-color="#00b8fe"></stop>
		</linearGradient>
		<linearGradient id="ease-of-integration-left-block-gradient-g" x1="0.5" y1="1" x2="0.5"
			gradientUnits="objectBoundingBox">
			<stop offset="0" stop-color="#17bdff"></stop>
			<stop offset="0.8" stop-color="#17bdff" stop-opacity="0"></stop>
			<stop offset="0.992" stop-color="#17bdff" stop-opacity="0"></stop>
			<stop offset="1" stop-color="#17bdff" stop-opacity="0"></stop>
		</linearGradient>
		<linearGradient id="ease-of-integration-left-block-gradient-h" x1="0.5" y1="1" x2="0.5"
			gradientUnits="objectBoundingBox">
			<stop offset="0" stop-color="#51b9ff"></stop>
			<stop offset="0.689" stop-color="#3198f5" stop-opacity="0.702"></stop>
			<stop offset="1" stop-color="#2389f0" stop-opacity="0"></stop>
		</linearGradient>
		<linearGradient id="ease-of-integration-left-block-gradient-i" x1="0.5" y1="1" x2="0.5"
			gradientUnits="objectBoundingBox">
			<stop offset="0" stop-color="#17bdff" stop-opacity="0"></stop>
			<stop offset="1" stop-color="#17bdff"></stop>
		</linearGradient>
	</defs>
	<g transform="translate(-1514.995 -2069.999)">
		<g data-server-bottom="">
			<path style="fill: url(#ease-of-integration-left-block-gradient-a);"
				d="M1696.95,2249.881c.286,2.557-1.087,5.039-4.2,6.852l-75.353,43.815c-6.3,3.661-17.3,3.205-24.572-1.017l-71.768-41.652c-3.941-2.287-5.963-5.209-6-7.99h-.035v-10.635H1696.95Z">
			</path>
			<path style="fill: url(#ease-of-integration-left-block-gradient-b)"
				d="M1519.253,2233.43l75.373-43.926c6.3-3.67,17.3-3.213,24.578,1.02l71.787,41.756c7.277,4.233,8.073,10.64,1.776,14.31l-75.373,43.927c-6.3,3.669-17.3,3.213-24.578-1.02l-71.787-41.757C1513.751,2243.507,1512.956,2237.1,1519.253,2233.43Z">
			</path>
		</g>
		<g data-server-center="" style="transform: translateY(0px);">
			<path style="fill: url(#ease-of-integration-left-block-gradient-a);"
				d="M1696.95,2207.881c.286,2.557-1.087,5.039-4.2,6.852l-75.353,43.815c-6.3,3.661-17.3,3.206-24.572-1.018l-71.768-41.651c-3.941-2.287-5.963-5.208-6-7.99h-.035v-10.635H1696.95Z">
			</path>
			<path style="fill: url(#ease-of-integration-left-block-gradient-b)"
				d="M1519.253,2190.992l75.373-43.511c6.3-3.636,17.3-3.183,24.578,1.01l71.787,41.362c7.277,4.193,8.073,10.539,1.776,14.175l-75.373,43.512c-6.3,3.635-17.3,3.182-24.578-1.011l-71.787-41.363C1513.751,2200.973,1512.956,2194.627,1519.253,2190.992Z">
			</path>
		</g>
		<g data-server-top="" style="transform: translateY(0px);">
			<path style="fill: url(#ease-of-integration-left-block-gradient-a);"
				d="M1592.822,2204.433l-71.769-41.587c-3.939-2.283-5.978-5.2-6.021-7.976h-.022v-10.65h11.8l67.82-39.375c6.3-3.655,17.3-3.2,24.572,1.016l66.2,38.359h11.552v10.59c.31,2.57-1.067,5.069-4.2,6.891l-75.352,43.749a21.678,21.678,0,0,1-10.678,2.469A28.452,28.452,0,0,1,1592.822,2204.433Z">
			</path>
			<path style="fill: url(#ease-of-integration-left-block-gradient-f)"
				d="M1519.255,2137.972l75.37-43.512c6.3-3.635,17.3-3.182,24.577,1.011l71.785,41.362c7.277,4.195,8.073,10.541,1.776,14.175l-75.37,43.513c-6.3,3.635-17.3,3.183-24.577-1.01l-71.785-41.364C1513.754,2147.954,1512.958,2141.608,1519.255,2137.972Z">
			</path>
			<path style="fill: #fff"
				d="M1599.729,2165.739a3.642,3.642,0,0,1-2.055-.6c-1.661-1.212,2.071-3.94,5.508-6.182.23-.15.43-.28.484-.321a1.012,1.012,0,0,1,.912-.077c.289.122.356.355.149.525-1.831,1.5-3.234,3.1-3.1,3.52,1.415-.077,8.413-2.847,16.47-7.5,1.317-.76,2.578-1.525,3.746-2.274,8.544-5.458,12.432-9.452,12.469-10.05,0-.275-.223-.35-.41-.363-.327-.013-.579-.162-.6-.35s.206-.358.525-.4a4.744,4.744,0,0,1,2.2.239,1.253,1.253,0,0,1,.829,1.038c.107,1.608-4.549,6.951-17.5,14.441h0c-12.744,7.358-17.208,8.352-19.389,8.352Q1599.839,2165.743,1599.729,2165.739Zm10.993-2.4c-.2-.156-.173-.376.08-.509.06-.031,6.078-3.231,12.151-6.737s10.046-6.062,11.841-7.617c4.666-4.072,4.581-6.369,4.579-6.392-.01-.163.164-.313.431-.37a.986.986,0,0,1,.743.12c.126.092,3.018,2.309-2.6,6.926a78.634,78.634,0,0,1-10.531,7.184,108.581,108.581,0,0,1-15.828,7.489,1.035,1.035,0,0,1-.345.057A.887.887,0,0,1,1610.722,2163.338Zm-5.886-6.208a3.389,3.389,0,0,1-1.846-.554c-1.54-1.108,1.061-2.751,1.364-2.935a1.045,1.045,0,0,1,.783-.076c.26.078.4.248.337.413-.022.083.037.131.1.157a38.845,38.845,0,0,0,7.241-3.312,18.619,18.619,0,0,0,1.859-1.2c2.415-1.832,3.882-3.121,3.9-3.134a.78.78,0,0,1,.4-.162l4.691-.659a.988.988,0,0,1,.643.114c.161.1.211.25.13.382s-2.128,3.355-7.788,6.623c-.528.305-1.079.6-1.638.891-4.515,2.322-7.76,3.454-9.9,3.454C1605.015,2157.136,1604.924,2157.134,1604.836,2157.13Zm-8.966-2.779c-1.062-.518-.709-1.619,1.047-3.277a.97.97,0,0,1,.871-.137c.307.094.433.311.287.492-.13.167-.255.469-.148.6.014.016.039.047.167.07.635-.019,3.334-1.1,6.835-3.126,1.555-.9,3.029-1.844,4.264-2.736a45.306,45.306,0,0,0,4.911-4.02.764.764,0,0,1,.454-.184l3.92-.4a.926.926,0,0,1,.656.158.253.253,0,0,1,.019.41,69.779,69.779,0,0,1-11.21,8.541h0c-.554.321-1.1.616-1.625.88-2.97,1.493-6.791,2.974-9.121,2.974A3.07,3.07,0,0,1,1595.87,2154.351Zm-8.6-.754a2.626,2.626,0,0,1-1.785-.746c-1.525-1.75,5.594-5.994,7.036-6.827a1.037,1.037,0,0,1,.883-.025c.261.123.316.342.127.5-1.977,1.7-3.175,3.3-3.056,3.74.895-.208,3.82-1.48,8.852-4.385,4.5-2.6,10.646-6.534,13.172-9.084a.916.916,0,0,1,.762-.176c.293.051.486.213.464.39s-.613,4.04-10.121,9.936c-.871.54-1.737,1.058-2.572,1.542h0c-5.793,3.344-10.457,5.156-13.246,5.156C1587.606,2153.619,1587.434,2153.612,1587.27,2153.6Zm-7.906-14.667c-1.861-2.911-.974-5.831-.192-8.409.545-1.8,1.017-3.347.433-4.513-1.408-2.825-5.1-4.227-5.134-4.241-.262-.1-.368-.288-.255-.456a.812.812,0,0,1,.723-.239c.079.008,7.934.813,9.739,5.2.816,2,.384,4.354,0,6.435-.415,2.271-.808,4.416.618,5.284,4.1,2.491,12.992,4.125,13.081,4.141.294.054.484.218.456.4a.354.354,0,0,1-.191.235.9.9,0,0,1-.38.108c-.2.015-1.77.129-3.944.129C1589.468,2143,1581.614,2142.432,1579.363,2138.929Zm23.859,2.817a6.2,6.2,0,0,0-2.909-2.576,11.5,11.5,0,0,0-2.2-.25,18.956,18.956,0,0,1-8.907-2.266c-4.868-2.805,1.576-11.174,1.852-11.528a.876.876,0,0,1,.783-.211c.314.053.514.23.468.418-.014.054-1.325,5.455-.383,7.357.812,1.628,2.459,1.813,4.739,2.067a19.237,19.237,0,0,1,4.785.974,4.736,4.736,0,0,1,3.047,5.96.38.38,0,0,1-.183.2.941.941,0,0,1-.418.11h-.052A.726.726,0,0,1,1603.222,2141.746Zm18.7-.122c-.292-.068-.458-.248-.394-.427.587-1.655,1.571-6.173-.886-7.191-2.838-1.186-7.168,1.273-7.211,1.3a1.051,1.051,0,0,1-.8.058c-.258-.089-.378-.268-.291-.435a8.179,8.179,0,0,1,2.984-2.946c1.7-.982,4.576-1.813,8.623-.2,6.607,2.634-.9,9.407-1.22,9.694a.473.473,0,0,1-.086.062.952.952,0,0,1-.466.112A1.09,1.09,0,0,1,1621.923,2141.625Z">
			</path>
		</g>
		<g style="opacity: 0.8">
			<path style="fill: rgba(255, 255, 255, 0)"
				d="M1696.86,2251.475c-.281,2.559-2.107,5.075-5.517,7.03l-35.889,20.588-35.889,20.589a29.928,29.928,0,0,1-26.917,0l-35.889-20.589-35.888-20.588c-3.14-1.8-4.936-4.076-5.423-6.423H1515l0-148.039h182l.01,147.43Z">
			</path>
			<path style="fill: url(#ease-of-integration-left-block-gradient-g);"
				d="M1696.86,2251.475c-.281,2.559-2.107,5.075-5.517,7.03l-35.889,20.588-35.889,20.589a29.928,29.928,0,0,1-26.917,0l-35.889-20.589-35.888-20.588c-3.14-1.8-4.936-4.076-5.423-6.423H1515l0-148.039h182l.01,147.43Z">
			</path>
		</g>
		<path style="fill: rgba(2, 161, 243, 0)"
			d="M1696.869,2250.2c.018.195.049.388.049.582,0,2.794-1.858,5.591-5.575,7.721l-71.778,41.177a29.928,29.928,0,0,1-26.917,0l-71.778-41.177c-3.526-2.021-5.357-4.642-5.538-7.291h-.056L1515,2070h182Z">
		</path>
		<path style="opacity: 0.15; fill: url(#ease-of-integration-left-block-gradient-h);"
			d="M1696.869,2250.2c.018.195.049.388.049.582,0,2.794-1.858,5.591-5.575,7.721l-71.778,41.177a29.928,29.928,0,0,1-26.917,0l-71.778-41.177c-3.526-2.021-5.357-4.642-5.538-7.291h-.056L1515,2070h182Z">
		</path>
		<g style="opacity: 0.302;">
			<path style="fill: rgba(255, 255, 255, 0)"
				d="M1515,2344.009v-93.2c.013,2.784,1.868,5.568,5.57,7.692l35.89,20.588,35.889,20.588a29.927,29.927,0,0,0,26.916,0l35.888-20.588,35.891-20.588c3.716-2.131,5.574-4.927,5.574-7.721a6.4,6.4,0,0,0-.174-1.393h.571V2343.4Zm0-93.253v-1.365h.172A6.414,6.414,0,0,0,1515,2250.755Z">
			</path>
			<path style="opacity: 0.88; fill: url(#ease-of-integration-left-block-gradient-i);"
				d="M1515,2344.009v-93.2c.013,2.784,1.868,5.568,5.57,7.692l35.89,20.588,35.889,20.588a29.927,29.927,0,0,0,26.916,0l35.888-20.588,35.891-20.588c3.716-2.131,5.574-4.927,5.574-7.721a6.4,6.4,0,0,0-.174-1.393h.571V2343.4Zm0-93.253v-1.365h.172A6.414,6.414,0,0,0,1515,2250.755Z">
			</path>
		</g>
	</g>
</svg>