<svg width="944" height="272" viewBox="0 0 944 272" fill="none" xmlns="http://www.w3.org/2000/svg">
<path d="M18.4271 143.936C20.1169 141.574 22.8423 140.173 25.7462 140.173H121.847C124.885 140.173 127.719 141.706 129.381 144.25L136.903 155.764C140.815 161.75 136.52 169.686 129.369 169.686H17.5072C10.1833 169.686 5.92607 161.405 10.1881 155.449L18.4271 143.936Z" fill="url(#paint0_linear)"/>
<path d="M18.4271 102.617C20.1169 100.255 22.8423 98.854 25.7462 98.854H121.847C124.885 98.854 127.719 100.387 129.381 102.931L136.903 114.445C140.815 120.431 136.52 128.368 129.369 128.368H17.5072C10.1833 128.368 5.92608 120.086 10.1881 114.13L18.4271 102.617Z" fill="url(#paint1_linear)"/>
<path d="M18.4271 185.254C20.1169 182.893 22.8423 181.492 25.7462 181.492H121.847C124.885 181.492 127.719 183.025 129.381 185.569L136.903 197.083C140.815 203.069 136.52 211.005 129.369 211.005H17.5072C10.1833 211.005 5.92608 202.724 10.1881 196.768L18.4271 185.254Z" fill="url(#paint2_linear)"/>
<path d="M18.4309 63.8192C20.1165 61.4247 22.8618 60 25.7901 60H121.803C124.866 60 127.718 61.5574 129.374 64.1337L137.087 76.1337C140.937 82.1233 136.636 90 129.516 90H17.3423C10.0502 90 5.78535 81.782 9.98306 75.8192L18.4309 63.8192Z" fill="url(#paint3_linear)"/>
<path d="M230.762 212H202.47V84.7402H176.997V56.5566H230.762V212ZM376.718 172.435C376.718 175.108 376.393 177.927 375.743 180.89C375.165 183.853 374.189 186.815 372.816 189.778C371.515 192.669 369.817 195.451 367.721 198.125C365.626 200.799 363.096 203.184 360.134 205.279C357.243 207.303 353.883 208.929 350.052 210.157C346.222 211.386 341.923 212 337.153 212H273.415C269.512 212 265.249 211.313 260.624 209.94C255.999 208.567 251.699 206.327 247.724 203.22C243.822 200.04 240.534 195.957 237.86 190.971C235.259 185.912 233.958 179.733 233.958 172.435V159.86C233.958 157.114 234.247 154.224 234.825 151.188C235.475 148.153 236.451 145.154 237.752 142.191C239.125 139.229 240.859 136.41 242.955 133.736C245.051 131.062 247.58 128.75 250.543 126.799C249.242 123.764 248.266 120.692 247.616 117.585C246.966 114.478 246.64 111.551 246.64 108.805V96.1221C246.64 88.8955 247.941 82.7529 250.543 77.6943C253.217 72.6357 256.505 68.5527 260.407 65.4453C264.382 62.3379 268.681 60.0977 273.306 58.7246C277.931 57.2793 282.195 56.5566 286.097 56.5566H324.254C329.095 56.5566 333.431 57.1709 337.261 58.3994C341.164 59.6279 344.56 61.29 347.451 63.3857C350.414 65.4092 352.907 67.7578 354.93 70.4316C357.026 73.1055 358.724 75.9238 360.025 78.8867C361.326 81.7773 362.265 84.7402 362.843 87.7754C363.494 90.7383 363.819 93.5205 363.819 96.1221V108.805C363.819 115.887 362.554 122.029 360.025 127.232C362.338 128.75 364.506 130.557 366.529 132.652C368.552 134.676 370.323 137.024 371.841 139.698C373.358 142.372 374.551 145.407 375.418 148.804C376.285 152.128 376.718 155.813 376.718 159.86V172.435ZM335.635 96.3389C335.635 92.5088 334.66 89.6182 332.709 87.667C330.758 85.7158 327.939 84.7402 324.254 84.7402H286.314C282.484 84.7402 279.63 85.7158 277.751 87.667C275.944 89.6182 275.041 92.4365 275.041 96.1221V108.805C275.041 112.562 275.98 115.381 277.859 117.26C279.81 119.139 282.556 120.078 286.097 120.078H324.254C328.084 120.078 330.938 119.139 332.817 117.26C334.696 115.309 335.635 112.49 335.635 108.805V96.3389ZM348.21 159.86C348.21 156.247 347.198 153.465 345.175 151.514C343.223 149.49 340.55 148.479 337.153 148.479H273.415C269.946 148.479 267.2 149.562 265.176 151.73C263.153 153.898 262.141 156.608 262.141 159.86V172.435C262.141 175.903 263.189 178.686 265.285 180.781C267.453 182.805 270.163 183.816 273.415 183.816H337.153C340.766 183.816 343.512 182.732 345.391 180.564C347.27 178.396 348.21 175.687 348.21 172.435V159.86ZM534.273 108.805C534.273 115.236 533.479 120.981 531.889 126.04C530.299 131.099 528.131 135.579 525.385 139.481C522.711 143.312 519.604 146.6 516.062 149.346C512.521 152.092 508.8 154.368 504.897 156.175C501.067 157.909 497.165 159.174 493.19 159.969C489.288 160.764 485.603 161.161 482.134 161.161L540.994 212H497.418L438.666 161.161H418.396V132.978H482.134C485.675 132.688 488.891 131.966 491.781 130.81C494.744 129.581 497.273 127.955 499.369 125.932C501.537 123.908 503.199 121.487 504.355 118.669C505.512 115.778 506.09 112.49 506.09 108.805V91.0273C506.09 89.4375 505.873 88.2451 505.439 87.4502C505.078 86.583 504.572 85.9687 503.922 85.6074C503.344 85.1738 502.693 84.9209 501.971 84.8486C501.32 84.7764 500.706 84.7402 500.128 84.7402H407.122V212H378.938V70.7568C378.938 68.8057 379.3 66.9629 380.022 65.2285C380.745 63.4941 381.721 61.9766 382.949 60.6758C384.25 59.375 385.768 58.3633 387.502 57.6406C389.236 56.918 391.115 56.5566 393.139 56.5566H500.128C506.415 56.5566 511.727 57.7129 516.062 60.0254C520.398 62.2656 523.903 65.1201 526.577 68.5889C529.323 71.9854 531.274 75.6709 532.431 79.6455C533.659 83.6201 534.273 87.3418 534.273 90.8105V108.805ZM664.837 148.479H575.842V120.078H664.837V148.479ZM677.52 212H575.842C571.94 212 567.676 211.313 563.051 209.94C558.426 208.567 554.126 206.327 550.152 203.22C546.249 200.04 542.961 195.957 540.287 190.971C537.686 185.912 536.385 179.733 536.385 172.435V70.7568C536.385 68.8057 536.746 66.9629 537.469 65.2285C538.192 63.4941 539.167 61.9766 540.396 60.6758C541.697 59.375 543.214 58.3633 544.949 57.6406C546.683 56.918 548.562 56.5566 550.585 56.5566H677.52V84.7402H564.569V172.435C564.569 176.12 565.544 178.938 567.495 180.89C569.447 182.841 572.301 183.816 576.059 183.816H677.52V212ZM860.223 212H831.823V119.428L781.851 207.339C780.623 209.579 778.888 211.277 776.648 212.434C774.48 213.59 772.131 214.168 769.602 214.168C767.145 214.168 764.833 213.59 762.665 212.434C760.569 211.277 758.907 209.579 757.678 207.339L707.49 119.428V212H679.306V68.5889C679.306 65.3369 680.246 62.4463 682.125 59.917C684.076 57.3877 686.605 55.6895 689.712 54.8223C691.23 54.4609 692.748 54.3525 694.265 54.4971C695.783 54.5693 697.228 54.8945 698.601 55.4727C700.046 55.9785 701.347 56.7373 702.503 57.749C703.66 58.6885 704.635 59.8447 705.43 61.2178L769.602 172.76L833.774 61.2178C835.436 58.4717 837.712 56.5205 840.603 55.3643C843.566 54.208 846.637 54.0273 849.817 54.8223C852.852 55.6895 855.345 57.3877 857.296 59.917C859.248 62.4463 860.223 65.3369 860.223 68.5889V212Z" fill="#DDDDDD"/>
<defs>
<linearGradient id="paint0_linear" x1="73" y1="140.173" x2="73" y2="169.686" gradientUnits="userSpaceOnUse">
<stop stop-color="#9B51E0" stop-opacity="0"/>
<stop offset="1" stop-color="#9B51E0"/>
</linearGradient>
<linearGradient id="paint1_linear" x1="73" y1="98.854" x2="73" y2="128.368" gradientUnits="userSpaceOnUse">
<stop stop-color="#EB5757" stop-opacity="0"/>
<stop offset="1" stop-color="#EB5757"/>
</linearGradient>
<linearGradient id="paint2_linear" x1="73" y1="181.492" x2="73" y2="211.005" gradientUnits="userSpaceOnUse">
<stop stop-color="#F2994A" stop-opacity="0"/>
<stop offset="1" stop-color="#F2994A"/>
</linearGradient>
<linearGradient id="paint3_linear" x1="73" y1="60" x2="73" y2="90" gradientUnits="userSpaceOnUse">
<stop stop-color="#2F80ED" stop-opacity="0"/>
<stop offset="1" stop-color="#2F80ED"/>
</linearGradient>
</defs>
</svg>
